<svg width="350" height="380" viewBox="0 0 350 380" fill="none" xmlns="http://www.w3.org/2000/svg">
<rect x="2" y="2" width="346" height="376" rx="18" fill="#FCF1DD"/>
<rect x="2" y="2" width="346" height="376" rx="18" stroke="#041115" stroke-width="4"/>
<path d="M108.25 172.25H223.5V198H108.25V172.25ZM63.5 228.25H287.25V256H63.5V228.25ZM159.75 212.25H190.5V289.5C190.5 305 186.75 312.75 174.75 317.25C163 321.25 147 321.75 125.75 321.75C123.75 313.25 118.25 300.5 113.5 292.75C129.5 293.25 148.25 293.25 153.25 293.25C158.25 293.25 159.75 292 159.75 288.5V212.25ZM213.75 172.25H221.25L227.5 170.75L246.5 185.25C229.25 203.75 204.5 223.25 180 235C176.5 230 168.5 221.75 164 217.75C183.25 207.75 204.5 190 213.75 177.75V172.25ZM66.5 126.5H284.5V187.75H254.75V153H94.75V187.75H66.5V126.5ZM239.75 88.5L272.25 98C260.75 114.5 247.75 131.5 237.5 142.5L213 133.5C222.5 121.25 233.75 102.5 239.75 88.5ZM83.25 100.75L108.75 89.25C117.75 99 127.75 112.5 131.75 122.25L104.5 134.75C101 125.5 91.75 111.25 83.25 100.75ZM146.25 95.25L172.75 85.25C180.75 96.25 189.25 111.5 192.5 121.5L164 132.5C161.5 122.5 153.75 106.75 146.25 95.25Z" fill="black"/>
</svg>